# This file uses centimeters as units for non-parametric coordinates.

mtllib µµ°¸ºĞ.mtl
g default
v -461.328400 0.016589 -0.758927
v -461.133972 -0.063948 -0.758927
v -461.133972 0.016589 -0.564492
v -461.133972 0.211025 -0.483954
v -461.328400 0.211025 -0.564492
v -461.408936 0.211025 -0.758927
v -455.989471 0.016589 -0.758927
v -455.908936 0.211025 -0.758927
v -455.989471 0.211025 -0.564492
v -456.183929 0.211025 -0.483954
v -456.183929 0.016589 -0.564492
v -456.183929 -0.063948 -0.758927
v -461.328400 31.855515 -0.758927
v -461.408936 31.661079 -0.758927
v -461.328400 31.661079 -0.564492
v -461.133972 31.661079 -0.483954
v -461.133972 31.855515 -0.564492
v -461.133972 31.936052 -0.758927
v -455.989471 31.855515 -0.758927
v -456.183929 31.936052 -0.758927
v -456.183929 31.855515 -0.564492
v -456.183929 31.661079 -0.483954
v -455.989471 31.661079 -0.564492
v -455.908936 31.661079 -0.758927
v -461.328400 31.661079 -24.403416
v -461.408936 31.661079 -24.208981
v -461.328400 31.855515 -24.208981
v -461.133972 31.936052 -24.208981
v -461.133972 31.855515 -24.403416
v -461.133972 31.661079 -24.483953
v -455.989471 31.661079 -24.403416
v -456.183929 31.661079 -24.483953
v -456.183929 31.855515 -24.403416
v -456.183929 31.936052 -24.208981
v -455.989471 31.855515 -24.208981
v -455.908936 31.661079 -24.208981
v -461.328400 0.016589 -24.208981
v -461.408936 0.211025 -24.208981
v -461.328400 0.211025 -24.403416
v -461.133972 0.211025 -24.483953
v -461.133972 0.016589 -24.403416
v -461.133972 -0.063948 -24.208981
v -455.989471 0.016589 -24.208981
v -456.183929 -0.063948 -24.208981
v -456.183929 0.016589 -24.403416
v -456.183929 0.211025 -24.483953
v -455.989471 0.211025 -24.403416
v -455.908936 0.211025 -24.208981
v -461.292664 0.052325 -0.600227
v -456.025208 0.052325 -0.600227
v -461.292664 31.819778 -0.600227
v -456.025208 31.819778 -0.600227
v -461.292664 31.819778 -24.367682
v -456.025208 31.819778 -24.367682
v -461.292664 0.052325 -24.367682
v -456.025208 0.052325 -24.367682
vt 0.750214 0.870308
vt 0.747184 0.870308
vt 0.747184 0.504868
vt 0.750214 0.504868
vt 0.370305 0.001992
vt 0.370305 0.005022
vt 0.004865 0.005022
vt 0.004865 0.001992
vt 0.382020 0.005022
vt 0.382020 0.001992
vt 0.459160 0.001992
vt 0.459160 0.005022
vt 0.750214 0.873338
vt 0.827354 0.870308
vt 0.827354 0.873338
vt 0.373335 0.005022
vt 0.373335 0.495132
vt 0.370305 0.495132
vt 0.378990 0.005022
vt 0.382020 0.495132
vt 0.378990 0.495132
vt 0.471776 0.005022
vt 0.471776 0.001992
vt 0.837216 0.001992
vt 0.837216 0.005022
vt 0.830384 0.870308
vt 0.827354 0.504868
vt 0.830384 0.504868
vt 0.462190 0.005022
vt 0.462190 0.495132
vt 0.459160 0.495132
vt 0.468746 0.005022
vt 0.471776 0.495132
vt 0.468746 0.495132
vt 0.370305 0.498162
vt 0.004865 0.498162
vt 0.004865 0.495132
vt 0.658332 0.504868
vt 0.661362 0.504868
vt 0.661362 0.870308
vt 0.658332 0.870308
vt 0.661362 0.501838
vt 0.738502 0.501838
vt 0.738502 0.504868
vt 0.382020 0.498162
vt 0.459160 0.498162
vt 0.741532 0.504868
vt 0.741532 0.870308
vt 0.738502 0.870308
vt 0.471776 0.498162
vt 0.837216 0.495132
vt 0.837216 0.498162
vt 0.001835 0.495132
vt 0.001835 0.005022
vt 0.836035 0.504868
vt 0.839065 0.504868
vt 0.839065 0.994978
vt 0.836035 0.994978
vt 0.839065 0.501838
vt 0.916205 0.501838
vt 0.916205 0.504868
vt 0.661362 0.873338
vt 0.738502 0.873338
vt 0.919235 0.504868
vt 0.919235 0.994978
vt 0.916205 0.994978
vt 0.840246 0.495132
vt 0.840246 0.005022
vt 0.750214 0.501838
vt 0.827354 0.501838
vt 0.839065 0.998008
vt 0.916205 0.998008
vt 0.372778 0.002549
vt 0.747740 0.872781
vt 0.379547 0.002549
vt 0.829827 0.872781
vt 0.469303 0.002549
vt 0.461633 0.002549
vt 0.658889 0.502395
vt 0.372778 0.497605
vt 0.379547 0.497605
vt 0.469303 0.497605
vt 0.740976 0.502395
vt 0.461633 0.497605
vt 0.836592 0.502395
vt 0.002392 0.497605
vt 0.658889 0.872781
vt 0.839689 0.497605
vt 0.918678 0.502395
vt 0.740976 0.872781
vt 0.747740 0.502395
vt 0.002392 0.002549
vt 0.836592 0.997451
vt 0.839689 0.002549
vt 0.829827 0.502395
vt 0.918678 0.997451
vn -0.015610 -0.999873 0.003362
vn -0.382449 -0.923974 0.002108
vn -0.382449 -0.923974 -0.002108
vn -0.015610 -0.999873 -0.003362
vn -0.923975 -0.382447 0.002108
vn -0.999991 -0.002538 0.003399
vn -0.999991 -0.002538 -0.003399
vn -0.923975 -0.382447 -0.002108
vn -0.015621 -0.002512 0.999875
vn -0.009761 -0.381577 0.924286
vn 0.009761 -0.381577 0.924286
vn 0.015621 -0.002512 0.999875
vn -0.009761 -0.924286 0.381576
vn -0.015610 -0.999873 0.003362
vn 0.015610 -0.999873 0.003362
vn 0.009761 -0.924286 0.381576
vn -0.999991 -0.002538 0.003399
vn -0.923951 -0.001574 0.382507
vn -0.923951 0.001574 0.382507
vn -0.999991 0.002538 0.003399
vn -0.382506 -0.001574 0.923952
vn -0.015621 -0.002512 0.999875
vn -0.015621 0.002512 0.999875
vn -0.382506 0.001574 0.923952
vn 0.999991 -0.002538 0.003399
vn 0.923975 -0.382447 0.002108
vn 0.923975 -0.382447 -0.002108
vn 0.999991 -0.002538 -0.003399
vn 0.382449 -0.923974 0.002108
vn 0.015610 -0.999873 0.003362
vn 0.015610 -0.999873 -0.003362
vn 0.382449 -0.923974 -0.002108
vn 0.015621 -0.002512 0.999875
vn 0.382506 -0.001574 0.923952
vn 0.382506 0.001574 0.923952
vn 0.015621 0.002512 0.999875
vn 0.923951 -0.001574 0.382507
vn 0.999991 -0.002538 0.003399
vn 0.999991 0.002538 0.003399
vn 0.923951 0.001574 0.382507
vn -0.999991 0.002538 0.003399
vn -0.923975 0.382447 0.002108
vn -0.923975 0.382447 -0.002108
vn -0.999991 0.002538 -0.003399
vn -0.382449 0.923974 0.002108
vn -0.015610 0.999873 0.003362
vn -0.015610 0.999873 -0.003362
vn -0.382449 0.923974 -0.002108
vn -0.015610 0.999873 0.003362
vn -0.009761 0.924286 0.381576
vn 0.009761 0.924286 0.381576
vn 0.015610 0.999873 0.003362
vn -0.009761 0.381577 0.924286
vn -0.015621 0.002512 0.999875
vn 0.015621 0.002512 0.999875
vn 0.009761 0.381577 0.924286
vn 0.015610 0.999873 0.003362
vn 0.382449 0.923974 0.002108
vn 0.382449 0.923974 -0.002108
vn 0.015610 0.999873 -0.003362
vn 0.923975 0.382447 0.002108
vn 0.999991 0.002538 0.003399
vn 0.999991 0.002538 -0.003399
vn 0.923975 0.382447 -0.002108
vn -0.999991 0.002538 -0.003399
vn -0.923951 0.001574 -0.382507
vn -0.923951 -0.001574 -0.382507
vn -0.999991 -0.002538 -0.003399
vn -0.382506 0.001574 -0.923952
vn -0.015621 0.002512 -0.999875
vn -0.015621 -0.002512 -0.999875
vn -0.382506 -0.001574 -0.923952
vn -0.015621 0.002512 -0.999875
vn -0.009761 0.381577 -0.924286
vn 0.009761 0.381577 -0.924286
vn 0.015621 0.002512 -0.999875
vn -0.009761 0.924286 -0.381576
vn -0.015610 0.999873 -0.003362
vn 0.015610 0.999873 -0.003362
vn 0.009761 0.924286 -0.381576
vn 0.015621 0.002512 -0.999875
vn 0.382506 0.001574 -0.923952
vn 0.382506 -0.001574 -0.923952
vn 0.015621 -0.002512 -0.999875
vn 0.923951 0.001574 -0.382507
vn 0.999991 0.002538 -0.003399
vn 0.999991 -0.002538 -0.003399
vn 0.923951 -0.001574 -0.382507
vn -0.015610 -0.999873 -0.003362
vn -0.009761 -0.924286 -0.381576
vn 0.009761 -0.924286 -0.381576
vn 0.015610 -0.999873 -0.003362
vn -0.009761 -0.381577 -0.924286
vn -0.015621 -0.002512 -0.999875
vn 0.015621 -0.002512 -0.999875
vn 0.009761 -0.381577 -0.924286
vn -0.015621 -0.002512 0.999875
vn 0.015621 -0.002512 0.999875
vn 0.015621 0.002512 0.999875
vn -0.015621 0.002512 0.999875
vn -0.015610 0.999873 0.003362
vn 0.015610 0.999873 0.003362
vn 0.015610 0.999873 -0.003362
vn -0.015610 0.999873 -0.003362
vn -0.015621 0.002512 -0.999875
vn 0.015621 0.002512 -0.999875
vn 0.015621 -0.002512 -0.999875
vn -0.015621 -0.002512 -0.999875
vn -0.015610 -0.999873 -0.003362
vn 0.015610 -0.999873 -0.003362
vn 0.015610 -0.999873 0.003362
vn -0.015610 -0.999873 0.003362
vn 0.999991 -0.002538 0.003399
vn 0.999991 -0.002538 -0.003399
vn 0.999991 0.002538 -0.003399
vn 0.999991 0.002538 0.003399
vn -0.999991 -0.002538 -0.003399
vn -0.999991 -0.002538 0.003399
vn -0.999991 0.002538 0.003399
vn -0.999991 0.002538 -0.003399
vn -0.923951 -0.001574 0.382507
vn -0.999991 -0.002538 0.003399
vn -0.923975 -0.382447 0.002108
vn -0.887918 -0.325270 0.325270
vn -0.382449 -0.923974 0.002108
vn -0.015610 -0.999873 0.003362
vn -0.009761 -0.924286 0.381576
vn -0.325270 -0.887918 0.325270
vn -0.009761 -0.381577 0.924286
vn -0.015621 -0.002512 0.999875
vn -0.382506 -0.001574 0.923952
vn -0.325272 -0.325268 0.887918
vn 0.009761 -0.924286 0.381576
vn 0.015610 -0.999873 0.003362
vn 0.382449 -0.923974 0.002108
vn 0.325270 -0.887919 0.325268
vn 0.923975 -0.382447 0.002108
vn 0.999991 -0.002538 0.003399
vn 0.923951 -0.001574 0.382507
vn 0.887919 -0.325269 0.325270
vn 0.382506 -0.001574 0.923952
vn 0.015621 -0.002512 0.999875
vn 0.009761 -0.381577 0.924286
vn 0.325273 -0.325269 0.887918
vn -0.009761 0.924286 0.381576
vn -0.015610 0.999873 0.003362
vn -0.382449 0.923974 0.002108
vn -0.325270 0.887919 0.325268
vn -0.923975 0.382447 0.002108
vn -0.999991 0.002538 0.003399
vn -0.923951 0.001574 0.382507
vn -0.887919 0.325269 0.325270
vn -0.382506 0.001574 0.923952
vn -0.015621 0.002512 0.999875
vn -0.009761 0.381577 0.924286
vn -0.325273 0.325269 0.887918
vn 0.923951 0.001574 0.382507
vn 0.999991 0.002538 0.003399
vn 0.923975 0.382447 0.002108
vn 0.887918 0.325270 0.325270
vn 0.382449 0.923974 0.002108
vn 0.015610 0.999873 0.003362
vn 0.009761 0.924286 0.381576
vn 0.325270 0.887918 0.325270
vn 0.009761 0.381577 0.924286
vn 0.015621 0.002512 0.999875
vn 0.382506 0.001574 0.923952
vn 0.325272 0.325268 0.887918
vn -0.009761 0.381577 -0.924286
vn -0.015621 0.002512 -0.999875
vn -0.382506 0.001574 -0.923952
vn -0.325272 0.325268 -0.887918
vn -0.923951 0.001574 -0.382507
vn -0.999991 0.002538 -0.003399
vn -0.923975 0.382447 -0.002108
vn -0.887918 0.325270 -0.325270
vn -0.382449 0.923974 -0.002108
vn -0.015610 0.999873 -0.003362
vn -0.009761 0.924286 -0.381576
vn -0.325270 0.887918 -0.325270
vn 0.923975 0.382447 -0.002108
vn 0.999991 0.002538 -0.003399
vn 0.923951 0.001574 -0.382507
vn 0.887919 0.325269 -0.325270
vn 0.382506 0.001574 -0.923952
vn 0.015621 0.002512 -0.999875
vn 0.009761 0.381577 -0.924286
vn 0.325273 0.325269 -0.887918
vn 0.009761 0.924286 -0.381576
vn 0.015610 0.999873 -0.003362
vn 0.382449 0.923974 -0.002108
vn 0.325270 0.887919 -0.325268
vn -0.009761 -0.924286 -0.381576
vn -0.015610 -0.999873 -0.003362
vn -0.382449 -0.923974 -0.002108
vn -0.325270 -0.887919 -0.325268
vn -0.923975 -0.382447 -0.002108
vn -0.999991 -0.002538 -0.003399
vn -0.923951 -0.001574 -0.382507
vn -0.887919 -0.325269 -0.325270
vn -0.382506 -0.001574 -0.923952
vn -0.015621 -0.002512 -0.999875
vn -0.009761 -0.381577 -0.924286
vn -0.325273 -0.325269 -0.887918
vn 0.923951 -0.001574 -0.382507
vn 0.999991 -0.002538 -0.003399
vn 0.923975 -0.382447 -0.002108
vn 0.887918 -0.325270 -0.325270
vn 0.382449 -0.923974 -0.002108
vn 0.015610 -0.999873 -0.003362
vn 0.009761 -0.924286 -0.381576
vn 0.325270 -0.887918 -0.325270
vn 0.009761 -0.381577 -0.924286
vn 0.015621 -0.002512 -0.999875
vn 0.382506 -0.001574 -0.923952
vn 0.325272 -0.325268 -0.887918
s off
usemtl lambert2SG
f 2/1/1 1/2/2 37/3/3 42/4/4
f 1/5/5 6/6/6 38/7/7 37/8/8
f 4/9/9 3/10/10 11/11/11 10/12/12
f 3/13/13 2/1/14 12/14/15 11/15/16
f 6/6/17 5/16/18 15/17/19 14/18/20
f 5/19/21 4/9/22 16/20/23 15/21/24
f 8/22/25 7/23/26 43/24/27 48/25/28
f 7/26/29 12/14/30 44/27/31 43/28/32
f 10/12/33 9/29/34 23/30/35 22/31/36
f 9/32/37 8/22/38 24/33/39 23/34/40
f 14/18/41 13/35/42 27/36/43 26/37/44
f 13/38/45 18/39/46 28/40/47 27/41/48
f 18/39/49 17/42/50 21/43/51 20/44/52
f 17/45/53 16/20/54 22/31/55 21/46/56
f 20/44/57 19/47/58 35/48/59 34/49/60
f 19/50/61 24/33/62 36/51/63 35/52/64
f 26/37/65 25/53/66 39/54/67 38/7/68
f 25/55/69 30/56/70 40/57/71 39/58/72
f 30/56/73 29/59/74 33/60/75 32/61/76
f 29/62/77 28/40/78 34/49/79 33/63/80
f 32/61/81 31/64/82 47/65/83 46/66/84
f 31/67/85 36/51/86 48/25/87 47/68/88
f 42/4/89 41/69/90 45/70/91 44/27/92
f 41/71/93 40/57/94 46/66/95 45/72/96
f 4/9/97 10/12/98 22/31/99 16/20/100
f 18/39/101 20/44/102 34/49/103 28/40/104
f 30/56/105 32/61/106 46/66/107 40/57/108
f 42/4/109 44/27/110 12/14/111 2/1/112
f 8/22/113 48/25/114 36/51/115 24/33/116
f 38/7/117 6/6/118 14/18/119 26/37/120
f 5/16/121 6/6/122 1/5/123 49/73/124
f 1/2/125 2/1/126 3/13/127 49/74/128
f 3/10/129 4/9/130 5/19/131 49/75/132
f 11/15/133 12/14/134 7/26/135 50/76/136
f 7/23/137 8/22/138 9/32/139 50/77/140
f 9/29/141 10/12/142 11/11/143 50/78/144
f 17/42/145 18/39/146 13/38/147 51/79/148
f 13/35/149 14/18/150 15/17/151 51/80/152
f 15/21/153 16/20/154 17/45/155 51/81/156
f 23/34/157 24/33/158 19/50/159 52/82/160
f 19/47/161 20/44/162 21/43/163 52/83/164
f 21/46/165 22/31/166 23/30/167 52/84/168
f 29/59/169 30/56/170 25/55/171 53/85/172
f 25/53/173 26/37/174 27/36/175 53/86/176
f 27/41/177 28/40/178 29/62/179 53/87/180
f 35/52/181 36/51/182 31/67/183 54/88/184
f 31/64/185 32/61/186 33/60/187 54/89/188
f 33/63/189 34/49/190 35/48/191 54/90/192
f 41/69/193 42/4/194 37/3/195 55/91/196
f 37/8/197 38/7/198 39/54/199 55/92/200
f 39/58/201 40/57/202 41/71/203 55/93/204
f 47/68/205 48/25/206 43/24/207 56/94/208
f 43/28/209 44/27/210 45/70/211 56/95/212
f 45/72/213 46/66/214 47/65/215 56/96/216
